<svg id="Layer_1" data-name="Layer 1" xmlns="http://www.w3.org/2000/svg" viewBox="0 0 5190.59 5050.5"><defs><style>.cls-1{fill:#912a7c;}.cls-1,.cls-2,.cls-3,.cls-4,.cls-5{fill-rule:evenodd;}.cls-2{fill:#ec7820;}.cls-3{fill:#539868;}.cls-4{fill:#dc2021;}.cls-5{fill:#005a16;}.cls-6{font-size:450px;font-family:NeuzeitGro-Reg, NeuzeitGro;letter-spacing:0.04em;}</style></defs><title>DSH Logo</title><path class="cls-1" d="M3547,4457.5v6c1.81.73,3.52,6.61,9,7,7,.54,39.36,0,48,0v1078c-4.86,0-47.24-.86-50.39.61-2.65,1.25-4,4.43-6.61,5.39v7c1.22.44.82.34,1.77,1.23l4.21,3.79c1,.76.46-.41,1,1h236c.7-1.95,2.79-2.88,3.86-4.64.08-.13.29-.51.36-.65l.17-.32c0-.11.11-.23.16-.34l-.16-7.44c-.87-1.85-2.38-2.75-3.64-4.36-.6-.77-.37-.2-.75-1.25h-33v-553h94v553h-28c-.81,2.25-3.34,3.37-4.39,5.61,0,.11-.11.23-.16.34s-.1.24-.14.36c-.13.37-.89,4.52.3,7.08l.17.32.55,1c1,1.56,3,2.44,3.67,4.33h230c.43-1.06,2.11-1.61,3-2.47l.25-.25,2.41-3.59a7.4,7.4,0,0,0,.31-1.19v-3.57a9.28,9.28,0,0,0-1.33-3.6,9,9,0,0,0-4.28-3.72l-48.39-.61v-1078c4.95,0,42.28.84,45.39-.61l1.28-.72a3.08,3.08,0,0,0,.3-.2l2.3-2.2c.87-.89,1.72-2.86,2.73-3.27v-6a6.11,6.11,0,0,1-2.51-2l-4.49-4H3818c-.47,1.29-.95,1.44-2,2-1.25.7-1.24.41-2.28,1.72l-1.08,1.92c-1.66,3.34-2.8,3.3-.32,7,1.52,2.28,4.76,3.83,5.67,6.33h33v507h-94v-507h25l4-3c.05-2.21.19-1.47,1.19-2.81l.82-1.18c.77-1-.39-.45,1-1v-4c-2.91-1.06-.36-1.79-4.65-4.35a4.92,4.92,0,0,1-2.35-2.65H3554c-.66,1.64-1.48.89-4.25,3.75C3548.84,4456.19,3548.35,4457,3547,4457.5Z" transform="translate(-1169.41 -1333.5)"/><path class="cls-2" d="M2673,5561v-6a8.06,8.06,0,0,1,.18-.81l5.9-5.6c3.5-.69,45.28-.08,50.92-.08v-1078h-34.5c-8,0-17.13,1.85-20.77-2.73l-1.55-2.95a4.74,4.74,0,0,1-.18-.89v-6a4.37,4.37,0,0,1,.31-1.09l1-2,.2-.3a7.75,7.75,0,0,1,4.56-2.94c3.34-.65,189.24-.08,191.92-.08l26,0a6.93,6.93,0,0,1,2.25.25l1.06.44.36.14c2.51.71,5.72,0,8.31.19s1.85,1,7.51,1c.45,0,1.54,0,1.95.05,2.52.37.94.8,3.5,1l5.37.64c1.88.62,2.23.14,4.12.38,3.66.49-.58.4,3.09.91.86.13,1.41,0,2.32.18l15.26,3.74c.14,0,.27.05.42.08.8.16.84.06,1.71.29l24.38,8.12.36.14,5.34,2.15,1.32.69c1.47.75-.81-.41.67.33l.33.17,2.66,1.33.34.17,3.33,1.67c2.53,1.26-1.18-.59.67.33l1,.5.66.33,1.34.67.66.33.34.17,23.66,14.84c1,.57,1,1.22,3,2.48l1.61.89a13,13,0,0,1,1.06.94l2.65,2.35.33.17,4,3.5,4.25,4.25L3048,4517a10.51,10.51,0,0,1,1,1l1.52,2.48a8.69,8.69,0,0,0,1.19,1.31l1,1c1.56,1.5,2.3,3.25,3.75,4.75l19,29,.17.33,2.33,4.67.33.66.84,1.67.16.33,3.34,6.67.33.67.33.66.34.67,1,2,.16.33,3.52,8,.16.34a3.84,3.84,0,0,1,.14.36c.05.11.09.25.13.37l1.57,3.93.3.7c.05.11.09.25.13.37l1.87,4.63c.05.11.09.25.13.36l4.72,13.29.13.37,3.62,11.88.13.37c0,.12.1.24.14.36l2.13,7.37a7.52,7.52,0,0,1,.35,1.65l1.76,6.74.12.38.64,1.86c0,.12.09.24.13.37s.09.25.12.38l7.87,33.63a7.37,7.37,0,0,1,.36,1.64,7.14,7.14,0,0,0,.36,1.63c.45,1.43.06-.89.52,1.49.18.9.05,1.46.18,2.32l4,19.54c.43,4.14.48.05.95,3.55.21,1.6,0,2.86.53,4.47.69,2,.65,4.82,1.15,6.35.62,1.88.14,2.23.39,4.11.48,3.71.44-.63.93,3.07.25,1.89-.24,2.24.38,4.12l2.3,14.7c.53,1.58.32,1.83.33,3.67l.81,3.69c.67,2.36-.13,4.93.71,7.29,0,.11.11.23.15.35l.35,4.15a10.33,10.33,0,0,0,.35,4.15c.77,2.28.27,5.08.67,7.83.54,3.64.42-.6,1,3,.43,3-.22,7.17.67,9.83,0,.11.1.24.14.36.9,3.15-.38,7,.31,10.19.51,2.35.1.09.55,1.45.92,2.73.33,7.12.32,10.18,0,3.47,1.08,4.46,1,8,0,3.34-.68,11.7.2,14.8l.58,1.42c.85,3,.21,290.2.21,316.29,0,5.32.78,40.4-.5,44l-.29.71c-.5,1.77-.21,3.9-.21,5.79,0,2.83,0,5.67,0,8.5,0,6.71-.55,4.59-1,7.52-.53,3.66.38,9.71-.67,12.83-1.17,3.44.43,8.46-.56,11.94l-.44,1.06c-1,2.91.06,6.13-.37,9.13-.36,2.45-.2.73-.48,1.52-.82,2.28-.37,7-1.15,9.35s.12,5.56-.56,7.94c-1.11,3.9-.31,4.91-.89,7.61-.51,2.35-.1.1-.55,1.45-.64,1.9-.07,4.44-.7,6.3s-.37,3.58-.68,5.82c-.5,3.68-.43-.62-.95,3-.19,1.38.17,3-.12,4.38-.43,2.07-.74.91-.9,3.1-.42,5.52-.81,3-1,7.51a4,4,0,0,1-.36,2.14l-2.15,12.35c-.59,1.72-.11,1.33-.62,3.88-.47,2.38-.11.13-.53,1.47l-2.37,12.63c-.42,4.05-.44.11-.93,3.57-.12.86,0,1.42-.17,2.33-.47,2.38-.07.06-.52,1.48-.39,1.26-.33,2-.73,3.27s-.18-.88-.58,1.92l-6.67,27.83c0,.12-.09.24-.14.36l-8.13,27.37c-.21.65-.31,1-.48,1.52l-2.26,6.74a3.76,3.76,0,0,0-.14.36l-10.9,27.6c-.05.1-.11.23-.17.33l-1,2-.33.67-1.17,2.33c-.2.42-.12.26-.33.67l-1,2c-.19.38-.47,1-.67,1.33s-.12.26-.33.67c-.05.1-.11.23-.17.33-.2.42-.12.26-.33.67l-2.5,5-.33.67-11.18,19.32c-.05.09-.12.23-.18.32l-1.28,1.72c-.45.7-.27.58-.72,1.28l-8.81,11.69c-.06.1-.12.23-.18.32l-.19.31c-1.43,2.06-3.32,3.32-4.81,5.69l-1.13,1.37c-.11.12-.86.83-1,1L3030,5519c-3,2.94-4.66,3.66-6,5l-13.62,9.88c-.27.18-.63.5-1.13.87l-9.58,5.42c-.38.19-.93.46-1.3.7l-9.69,5.31-1.33.67-2,1-.34.16-4.68,1.82-.33.17-24.13,8.37c-.92.2-1.18.11-2.14.36l-9.85,2.65a15.4,15.4,0,0,1-1.86.14c-4.05.42-.12.43-3.57.92l-5.45,1.06c-5.31.4-3.28.66-5.53,1-1.38.19-3-.16-4.37.13-2,.43-.9.73-3.08.92s-4.58-.38-6.67.33l-.7.3-.36.14c-3.49,1-7.79-.54-11.29.71-.12,0-.23.11-.35.15-3.21,1.08-160.77.35-166.65.35h-51.51c-2.63,0-4.76-.16-6.76-1.74a5.94,5.94,0,0,1-1.21-1.29l-1.34-2.66A8.06,8.06,0,0,1,2673,5561Zm211-13.51v-1077c7.46,0,35.73-.9,40.35.65,2.23.76,5.32,0,7.65.85s2.39.1,7.27,1.73l3.38,1.12.36.14,6.68,3.32c2,1,6.43,4.84,8.06,6.44l2.25,2.75c.06.09.12.23.18.32l6,11,.13.37,1,2c1,2.12,1.28,4.41,1.89,6.61l.78,3.72c.41,4,.55.08,1,4l1,9c.35,4.15.68-.19,1,4,.32,3.63-.29,8.64.63,11.37,1.08,3.18.35,152.37.35,154.65V5460c0,9.26-.53,6-1,9-.31,2.17,0,7.5,0,10l-.79,6.21c-.64,2.23,0,5-.19,7.31-.36,4.17-.71-.2-1,4-.14,1.81.13,3.27-.49,5-.19.55-.07-.53-.39,1.11l-.74,5.26a5,5,0,0,0-.31,1.19l-1.41,6.09c0,.13-.09.25-.13.37s-.1.24-.14.36l-3.38,8.62-.16.33-.34.67-.16.33-1.67,3.34c-1.28,2-3.53,3.66-5.16,5.34l-20.77,9.23c-.13,0-.25.08-.37.12L2930,5545c-1.82.63-4.69.19-6.65.85l-1.06.44c-2.16.61-6.83.21-9.31.19a22.28,22.28,0,0,0-2.46,0c-2.85.42-.48.17-1.87.63C2905.52,5548.21,2888.18,5547.5,2884,5547.5Z" transform="translate(-1169.41 -1333.5)"/><path class="cls-3" d="M3165,5089.5h-6c-.53,1.32,1,.93-2,1l-.33,1.67-.14.36-1.35,2.65c-.52,1.87.17-1.73-.16.84-.59,4.38,0,232.55,0,236.48V5546c0,5.46-.84,15.22.65,19.85.39,1.24.17.06.33,1.67.33,3.34,1,3.17,2,6h6c.65-1.79,1.41-1.61,2.63-2.37l2.7-1.8.32-.18,5.87-4.63c.47-.41.59-.61,1.23-1.27l4.74-4.76c.89-.9.17-.39,1.26-1.24L3189,5552l4.75-4.75,16.58-15.92.32-.18,7.7-7.3.32-.18L3235,5510.5l.33-.17.63-.37a8.89,8.89,0,0,0,1.28-1.22l1.43-1.07.33-.17,6-4c.72,2,0-.09.67,1.33l.49,1c.06.1.12.23.17.33l.16.34,8.5,12.5c.89,1,.24,0,1.26,1.24l3,4,.5.5,2.6,3.4c1.71,2.73,5,5.18,7.15,7.35,2.59,2.59,9.09,9.92,11.85,11.65.74.47.56.23,1.3.7,1.7,1.06,2.53,2.61,4.35,3.65l.33.17,12,8.48a3.2,3.2,0,0,0,.31.19l19.6,9.4.37.13.37.13.37.13.37.13,6.37,2.13c.65.2,1,.3,1.52.48l.74.26c.36.13.64.21,1.13.37l1.12.38.36.14.37.13,7.93,1.57c.13,0,.25.09.37.13s.23.11.35.15.23.11.35.15c1.71.54,2.56.15,4.3.7l4.35.65c.52,0,1.55-.06,2,0,1,.09,0-.07.88.12,1.53.33.63.23,1.1.4.11,0,.23.11.35.15l1.55.35h26.7a24.3,24.3,0,0,0,4.05-.35c1.95-.65,5.05-.34,7.35-1.15.12,0,.23-.11.35-.15l6-1a5,5,0,0,1,2.15-.35l3.24-.76.4-.1L3413,5573l.36-.14L3422,5570l.37-.13,5.35-2.15c.89-.3,1.06-.24,1.93-.57l27.37-14.63c1.37-.72.33,0,1.49-1,1-.89,0-.24,1.25-1.26l3.6-2.39c3.2-2,3.71-3.08,6.29-4.71l6.86-5.64.74-.76,16.5-16.5c.53-.54.44-.45,1-1l13.07-16.43c.35-.57.11-.32.53-1l7.31-10.69c.06-.14.25-.55.32-.68l1.25-1.75a4.15,4.15,0,0,0,.61-.89l1.65-3.35.16-.34.51-1,.19-.31,2.82-4.68.16-.34.34-.66c.06-.14.26-.53.33-.67l6.35-13.65c.07-.14.25-.55.3-.7l1.7-4.3.3-.7,4.12-11.38.12-.38,2.76-9.24c0-.12.09-.25.12-.38L3546,5407c.48-3.58.65.65,1-3.54l1-8.53a3.93,3.93,0,0,1,.38-2.12c.92-2.74.12-6.4,1-9,1-2.91.2-7.59.67-10.83.43-2.91,1,.06,1-8.52l-.65-46.35c-1.1-3.27.47-7.85-.7-11.3l-.55-1.45c-.44-2,.1-4.8-.08-6.92-.09-1,.07,0-.12-.88l-.55-1.45c0-.12-.1-.24-.14-.36-.65-2.3,0-5.11-.86-7.64-.65-1.93-.18-2.62-.34-4.67-.32-4.17-.51.06-1-3.52-.25-1.88.24-2.23-.38-4.11-.44-1.34-.05.91-.55-1.45l-2.1-14.9c-.31-4.1-.44,0-.95-3.56l-.27-2.72c0-.13-.09-.25-.13-.37s-.11-.23-.15-.35l-1.44-6.56a11.14,11.14,0,0,0-.43-2.08l-2-9c0-.11-.1-.24-.14-.35l-.71-4.29c0-.13-.09-.25-.13-.37l-1.15-4.35c0-.12-.1-.24-.14-.36s-.09-.25-.13-.38l-2.85-11.64c0-.12-.1-.25-.14-.36l-2.59-9.91c0-.13-.09-.25-.13-.37l-1.17-3.33c0-.12-.09-.25-.12-.38l-7.86-25.64c-.05-.12-.09-.25-.14-.37l-1-3c-.18-.57-.28-1-.47-1.53,0-.12-.08-.25-.13-.36l-.52-1.48c-.05-.16-.17-.62-.22-.78l-3.67-9.83c-.22-.62-.25-.91-.46-1.54l-4-11-.13-.37-9.83-24.67c-.05-.11-.12-.23-.17-.33l-8.43-20.07c-.2-.58-.16-.65-.33-1.17l-5.54-12.46-.13-.37c0-.12-.08-.26-.11-.39l-12.76-28.24-.13-.37-9.05-20-.34-.66-1.33-2.67-.17-.33-1.83-3.67c-1.06-2.12-1.58-2.5-2.39-5.11-.05-.12-.07-.26-.11-.39l-3.33-7.17-.17-.33-1.17-2.33-.16-.34c-.06-.1-.12-.23-.17-.33l-.33-.67c-.06-.1-.12-.23-.17-.33l-.67-1.33-.16-.34-.17-.33-1.67-3.33-.16-.34-.34-.66-1.5-3-.16-.34-.17-.33-.33-.67-.34-.66-.16-.34-.34-.66-1.66-3.34c-.06-.1-.12-.23-.17-.33l-.33-.67c-.06-.1-.12-.23-.17-.33l-.83-1.67-.34-.66-.16-.34-.17-.33-1.67-3.33-.16-.34-.17-.33-1.83-3.67-.17-.33-1.83-3.67-.17-.33-1.83-3.67c-.06-.1-.12-.23-.17-.33l-4-9a3.54,3.54,0,0,0-.16-.34l-1-2-.16-.33-.84-1.66-.16-.34-1.84-3.66-.16-.34-.34-.66-.16-.34-.84-1.66-.16-.34-.17-.33-1.5-3c-.07-.14-.27-.53-.33-.67l-4.5-9-.34-.66-.5-1-.16-.34-.5-1-.84-1.66-.16-.34-4.84-9.66-.16-.34-.67-1.33-.17-.33-.16-.34-.5-1-.5-1-.34-.66-.33-.67c-.07-.14-.27-.53-.33-.67l-3.34-6.66s-.33-.66-.33-.67-.27-.53-.33-.67l-.5-1-.34-.66-.16-.34-.34-.66-.66-1.34-.34-.66-.5-1-.16-.34-.34-.66c-.06-.14-.26-.53-.33-.67l-8.17-16.33-.16-.34-6.5-13-.34-.66-.16-.34-7.17-14.33c-.06-.1-.12-.23-.17-.33l-.17-.33-1.65-4.35a3.51,3.51,0,0,0-.16-.34l-5.68-11.32-.17-.33-1.33-2.67-.34-.66-3.66-7.34-.17-.33-.33-.67c-.06-.1-.12-.23-.17-.33l-1.83-3.67-.17-.33-.67-1.33-.16-.34-3.34-6.66-.17-.33-2.83-6.68-.16-.33-6.82-14.68-.51-1-1-2-.16-.34-.84-1.66-.16-.34c-.06-.1-.12-.23-.17-.33l-5.84-12.67-.16-.33-5.15-11.35c-.33-.87-.27-1-.57-1.93l-.13-.37-1-2-.34-.66-9.52-22c0-.1-.12-.22-.16-.33l-.87-2.63-.13-.37a3.77,3.77,0,0,0-.14-.36l-.16-.34-.17-.33-5.4-13.6-.13-.37-1.43-3.07c-.31-.91-.23-1.05-.57-1.93l-10-26-.13-.37-2-6-.13-.37c-.05-.12-.09-.25-.14-.37l-1.73-5.26-.13-.37-.87-2.63-.13-.37-1.87-5.63-.13-.37-1-3c-.14-.38-.2-.6-.37-1.13l-1.5-4.5-.13-.37-1-3c-.13-.36-.21-.64-.37-1.13l-3.35-12.15c0-.16-.22-.58-.27-.73-.16-.46-.41-1.25-.63-1.88l-2.11-8.38c-.1-.3-.19-.42-.28-.72l-5-21a4.13,4.13,0,0,1-.36-2.14c-.2-4.95-2-7.4-2-12l-.65-3.85c-.55-1.64-.21-3-.34-4.67-.32-4.16-.67.21-1-4-.25-2.92.59-6.58-.19-9.31l-.29-.71c0-.11-.11-.23-.15-.35s-.1-.24-.14-.36c-.47-1.64-.64-16.42.44-19.64,1-2.92.07-6.61.33-9.67.36-4.17.71.2,1-4,.14-1.81-.13-3.26.49-5,.2-.55.07.52.39-1.11s0-3.2.6-4.9l2.88-10.62c0-.13.22-.61.26-.74l1.47-4.53.12-.38.13-.37,3-7c.63-1.24-.29.58.33-.67.06-.1.12-.23.17-.33l.66-1.34c1.78-3.64,1.54-2,2.69-4.31L3291,4494c1-1.16.28-.26,1-1.51,1.4-2.46,2.48-2.68,4.35-5.65l.19-.31,3-3,1.25-1.25c.95-1-.45.47.5-.5l11.06-8.44.34-.16.34-.16.34-.16,8-4a11.25,11.25,0,0,1,1.14-.36l1.14-.36.37-.13,6.63-1.87c2.37-.75,4.85-.25,7-1l9-.3c2.51.84,6.13.46,8.72,1.28a5,5,0,0,0,1.19.31l5.07,1.43.37.13,3,1,.37.13,17.69,9.81.3.2,1,.53.32.18c2.91,1.84,4.84,5,8,7l1.88,1.62c1.53,1.59,2.06,3.16,3.72,4.78l3.52,3.48c.1.11.39.41.48.52l3.92,5.58c.46.77,0,.18.58.91l3.89,5.12a3.3,3.3,0,0,1,.18.32c0,.05.32.59.36.64l2.16,3.34.16.34c1.61,3.37,1.7,2.4,4.15,7.35l5,9c.06.14.26.53.33.67l.17.33,7.05,16c0,.12.08.26.13.37l1.32,2.68.17.33,3.53,9c.05.16.21.58.26.74l.86,2.64.16.34.7,1.3.3.7c.32.81.3,1,.59,1.91,0,.12.08.25.13.37l.13.37.13.37,9.61,28.88c0,.12.1.25.14.37l1.38,5.12.12.38c.2.57.37,1.11.5,1.5l2.76,10.24.09.4,2.15,7.36c0,.15.23.57.27.73l.58,2.91c0,.13.09.26.13.38l.64,2.36a7.49,7.49,0,0,0,.36,1.64l1,4c0,.12.1.24.14.36l9,39c0,.12.1.24.14.36.81,2.63.3,3,.85,4.65.18.52.14-.63.44,1.55.13.87,0,1.42.18,2.33l2.53,11.47c.56,1.71.27,3.72,1,6l2,10c.62,1.89.13,2.23.38,4.11.44,3.31.8-.37,1,4,0,.65-.06,1.33,0,2,.41,3.07,1.79,5.75,2,10.05s.54.72,1,4c.25,1.88-.24,2.23.38,4.11l.65,4.35c.19,2.47.63,1.14,1,6,.1,1.33-.12-.24.1.89.46,2.27.52.09.9,5.11.32,4.19.48,0,1,3.53.24,1.69-.18,3.46.38,5.12l.44,1.06c.65,2.31-.39,1.94,1,7l.24,3.75c.47,3.58.66-.65,1,3.52.16,2.05-.31,2.74.34,4.67.71,2.12.27,4.53.86,6.64,1.23,4.37.22,5.71,1.29,8.71l.52,5.47c.46,3.31.87-.36,1,4,.06,2-.28,2.42.32,4.18.47,1.41.22-1,.62,1.88a23,23,0,0,1,0,2.49,9.11,9.11,0,0,0,.12,1.88c0,.14.08.26.11.39l.44,1.06c.74,2.17-.06,4.74.56,6.94l.69,1.81c.46,2.17.08,4.21.75,6.25l.7,5.3a20.53,20.53,0,0,1,.64,5.36c.32,4.19.69-.22,1,4l1.49,10c0,.12.11.24.15.36l.36,1.63c0,.16,0,.29.06.44s0,.28.07.43l1.21,3.79c1.41,3.87,4.68,4.74,8.68,4.36,4.21-.4-.18-.93,4-1,.07-3,.75-1.89,1.85-3.65.08-.13.29-.51.36-.65l1-3c1.31-3.81.75-11.14.75-15.75v-395c0-11.8.52-5-2-12h-3a6.51,6.51,0,0,0-2.08.45l-3.32,2.19-.32.18-.32.18-.94.56c-.17.12-1.22.95-1.42,1.08L3490,4454.5c-2.9,1.65-3.94,3.77-6.33,5.17l-.32.18-12,9.48a3.41,3.41,0,0,1-.33.17l-7.32,5.18-.32.18-11,7.46-.32.18-3,2-.32.18-18.34,11.15-.34.17-4,2c-1.43,1.19-.43-.14-1,1.48l-11-13c-2-3.53-8.43-8.94-11.5-12L3395,4468c-1.65-1.15-2.64-2.62-4.37-3.63l-11-8-.32-.18-1.71-1.29a3.16,3.16,0,0,0-.31-.19L3364,4448l-.33-.17-1.31-.68-.35-.16-.36-.14-.37-.13-3.93-1.57c-.14-.06-.55-.25-.7-.3l-13.09-3.41c-2.88-.4-.52-.14-1.91-.59-1.89-.62-2.23-.14-4.12-.39-3.09-.4-.06-.77-3.29-1h-25.11a8.25,8.25,0,0,0-1.42.21l-.36.14a19.71,19.71,0,0,1-5.36.63c-4,.31.11.58-4,1l-6.24,1.25-.38.13-29,10.47-.67.34-3.35,1.64c-.14.07-.53.27-.66.35l-13,8.48-.32.18-5.81,4.19c-1.15,1-.26.28-1.51,1-2.43,1.39-2.67,2.48-5.65,4.35-3.34,2.09-6.29,6.48-8.35,7.65s-4.18,3.69-6,5.5c-.47.47-.66.64-1.27,1.23l-4.23,5.27c-6.86,6.74-4.08,5.13-8.77,9.73l-1.38,1.62c-.06.09-.12.22-.18.32l-1.41,2.09c-2.47,2.6-5.12,6.78-7.12,9.88l-.2.3s-.47.56-.66.83c-.06.09-.16.2-.22.29l-5.21,8.29a12.49,12.49,0,0,0-.69,1.3l-3.49,7c-.2.39-.36.71-.5,1l-1,2-.17.33-1.5,3-.16.33-.34.67-.16.33-6.58,14.93c0,.12-.08.25-.13.37l-1.12,3.38c0,.11-.11.23-.16.34l-10.85,38.65c-.59,1.72-.25,3.13-.6,4.89,0,.15-.08.27-.11.4l-.57,1.42c-.49,1.75,0,3.19-.57,4.94l-.3.7c0,.11-.1.24-.14.36-.62,2.22.11,3.75-.86,6.64-.59,1.76-.26,2.22-.32,4.18-.08,2.65-.6,1.26-1,4-.44,3,.5,6.53-.38,9.13-.45,1.36,0-.9-.55,1.45-1,4.67,1.09,10-.45,14.55,0,.12-.11.23-.15.35-1.54,4.32-.44,22.5-.5,29a15.62,15.62,0,0,0,.21,4.29l.82,4.18c0,2.82-.28,6.87-.05,9.55.3,3.38,1,.86,1,8.51,0,3.76,1.06,4.38,1,8l1.67,9.83a3.93,3.93,0,0,1,.36,2.14,12.12,12.12,0,0,0,.1,2.4l.68,1.82c.54,2,.25,3.72.86,5.64l6.71,29.29c0,.12.11.24.14.36l1,4c0,.12.1.24.14.36l7.5,23.51.12.37.26.74c0,.12.09.25.14.37l14.47,37.52c0,.13.07.27.11.39l1.11,2.39.34.66.84,1.66a3.84,3.84,0,0,1,.14.36c.05.11.09.25.13.37l.12.39,1.43,3.56.17.33,5.85,13.65c0,.12.1.25.14.36l.84,1.66c.75,1.47-.41-.81.34.66l2.52,5,.17.34c0,.1.11.23.15.34a3.84,3.84,0,0,1,.14.36l1.51,4,.17.33.17.33,1.84,3.67.16.33.34.67c.2.41.34.69.5,1l1,2c0,.1.11.23.15.34a3.84,3.84,0,0,1,.14.36c.05.11.09.25.13.37l1.55,3.95.17.33,2.17,4.33c.14.29.3.61.5,1,0,.1.12.23.17.34l.16.33,2,4c.06.1.12.23.17.33l.17.33,2.49,6c.75,1.47-.41-.81.34.66l.83,1.67.17.33c0,.1.12.23.17.34l.83,1.66c.61,1.23-.53-1,.33.67l1.67,3.33c.14.29.3.61.5,1l10.17,20.34c.46.92-.14-.26.33.66.14.29.3.61.5,1l2.17,4.34c.46.92-.14-.26.33.66.14.29.3.61.5,1l.83,1.67c1.19,2.37-.5-1,.34.67l2.33,4.66c.14.29.3.61.5,1l1.83,3.67.17.33.33.67.17.33,1,2c.14.29.3.61.5,1,0,.1.12.23.17.34l2.83,5.66c0,.1.12.23.17.34l1.83,3.66c0,.1.12.23.17.34l3.83,7.66c0,.1.12.23.17.34l4.83,9.66c0,.1.12.23.17.34l2.83,5.66c0,.1.12.23.17.34l3.83,7.66c0,.1.12.23.17.34l1.83,3.66c0,.1.12.23.17.34l1.83,3.66c0,.1.12.23.17.34l1.83,3.66c0,.1.12.23.17.34l3.83,7.66.17.34,4.83,9.66.17.34,6.83,13.66.17.34,1.83,3.66.17.34,1.83,3.66.17.34,1.83,3.66.17.34,3.83,7.66.17.34,7.31,14.68c.05.11.09.25.13.37l.71,2.29.16.34,1.69,3.32s.32.64.33.66l.67,1.34.16.33,2.84,5.67.16.33,1.84,3.67.16.33.17.33,3.55,8,.13.37,1.49,3c.1.21.22.45.33.66l1.5,3,.5,1,.5,1c.06.14.26.53.33.67l.34.67,3.31,6.68c.05.11.09.25.13.37l7.44,16.56.13.37a3.85,3.85,0,0,0,.14.36l2.85,5.65.16.34c.06.1.12.23.17.33l1.68,4.32a3.85,3.85,0,0,0,.14.36l4.16,8.34c.05.11.09.25.13.37l.57,1.93.3.7,3.54,7c.05.11.12.23.17.34s.11.23.15.34a3.77,3.77,0,0,1,.14.36c.05.11.09.25.13.37l.12.39,4.6,10.89.17.33.67,1.33c.77,1.54-.45-.86.33.67l1.44,3.56c0,.13.07.27.11.39a3.89,3.89,0,0,0,.43,1.07l4.19,9.31c.05.1.13.23.18.32l3.17,7.33c.05.11.12.23.17.34s.11.23.15.34l6.14,15.36c.07.14.28.51.35.65l4.51,11a3.77,3.77,0,0,1,.14.36l2.85,7.65.13.37,5.49,14.52c0,.12.07.25.12.37l.86,2.64.12.38,3.67,9.83c.21.65.31,1,.48,1.52l1.4,4.1c.15.48.2.69.35,1.16l2.52,7.48.13.36,5,16a7.44,7.44,0,0,1,.23,1.27l1.12,3.88c0,.12.08.26.13.38l5.11,20.38c0,.12.11.24.14.36l3.28,14.72a9.46,9.46,0,0,1,.24,2.26c.42,4.11.67,0,1,4l.65,4.35c0,.12.1.24.14.36a3.53,3.53,0,0,1,.21,1.29c.38,4.94.82,3.49,1,6,.13,1.81-.14,3.27.48,5,0,.11.11.23.15.35a3.84,3.84,0,0,1,.14.36c.64,2.25-.16,4.81.56,6.94l.68,3.82c0,7.81,1,5.09,1,13.53,0,1.43-.09,3.16,0,4.54.15,3.65,1-.37,1,13,0,4.08.69,20.07-.35,23.15-.46,1.36,0-.9-.55,1.45-.78,3.63.69,8.19-.45,11.55-.63,1.89-.43,3.92-.63,6.37-.22,2.62-.65,1-1,3.52-.1.79,0,1.67,0,2.46-.19,2.48-.6.71-1,6l-2.64,10.36a5.86,5.86,0,0,0-.3,1.2l-1.43,5.07-.13.37-.13.37-.13.36-7.4,18.6a3.65,3.65,0,0,0-.17.34l-.17.33-.16.33a3.65,3.65,0,0,0-.17.34l-3.51,6-.16.34-7.23,10.27c-1,1-1.53,1.47-2.54,2.46-1.5,1.49-.87,1.21-2.27,3.23-2,2.86-4.87,3.89-7.21,6.29-1.38,1.41-1.7,2.27-3.92,3.58l-2.39,1.61-.3.2-.32.18-5.37,3.63c-3.22,2.26-13.49,6.57-18.06,7.44l-4.6.9a3.73,3.73,0,0,1-1.27.23h-4.5c-2.86.41-.47.16-1.87.63a14,14,0,0,1-4.66.37l-2.89-.13c-2.54-.54-2.56-.92-5.62-.88a18.15,18.15,0,0,1-2,0c-2.81-.41-.55-.2-1.87-.62a80.1,80.1,0,0,1-8-2l-4.28-1.71c-2.26-1.06-4.53-1.53-6.69-2.81l-13.31-9.19c-1.13-.72-8.61-7.64-10.18-10.33l-.34-.66c-.06-.09-.12-.23-.18-.32-1.69-2.7-4.71-4.69-5.65-6.35l-11.82-16.67c-.06-.1-.12-.23-.18-.33s-.12-.23-.18-.32l-.18-.32-7-11-.16-.34-1.15-2.34-.17-.33-14-28-.17-.32-1.09-2.91-.12-.39-2.13-4.36-.3-.7-4.47-11.54c0-.12-.07-.26-.12-.38l-10.64-30.85c-.39-1.19.15.42-.23-.77l-2.13-6.37c0-.12-.1-.25-.14-.37l-2.27-7.72a5.62,5.62,0,0,1-.29-1.22l-8.82-33.17c0-.14-.07-.27-.1-.4-.17-.72-.11-1-.27-1.73,0-.14-.07-.27-.1-.4s-.09-.25-.13-.38l-2.5-10.49c-.21-.91-.12-1.18-.37-2.13l-1.79-7.72c-.15-1.45-1.34-4.64-2-9.46-.4-2.84-.18-.57-.6-1.91l-.85-4.65c-1.13-3.38-.78-6.34-2-10l-2.28-10.71a9.49,9.49,0,0,1-.24-2.27c-.42-4.14-.48,0-.94-3.55-.25-1.89.23-2.23-.39-4.12l-.77-4.23c-.4-2-.79-1.32-.89-3.61a12.87,12.87,0,0,0-.09-2.4l-.69-1.82c-.42-1.52-.05-2.53-1-6-.51-1.86-.23-3.73-.86-5.63s-.13-3.38-.37-5.13c-.5-3.56-.67.65-1-3.51l-.89-6.12c-.39-1.84.16-3.73-.45-5.55l-.44-1.06c-.58-2,.17-4.51-.42-6.58l-.29-.71c-.68-1.9-.2-5.24-.52-7.47-.42-2.85-.16-.49-.63-1.87a10.38,10.38,0,0,1-.35-4.16l-.1-3.4c-.33-1.52-.24-.64-.4-1.1-.28-.79-.12.93-.48-1.52-.07-.54,0-1.86,0-2.46.09-8.3-1-5.93-1-13.52a15.87,15.87,0,0,0-.5-5.5l-.29-.71c-1.44-5,1-11.56-.42-16.58l-.58-1.42c-1.37-4.8.91-58.39-.55-62.94l-.6-1.91a8.66,8.66,0,0,0-.39-2.11L3166,5091C3164.84,5089.69,3165.63,5091.23,3165,5089.5Z" transform="translate(-1169.41 -1333.5)"/><path class="cls-4" d="M3520,2111.5c-.09-4.09-1.41-8.58-2.25-12.75-.76-3.78-1.74-9.64-2.49-13.51-1.79-9.15-3.1-16.85-4.69-26.31-3.07-18.38-5.5-34.83-8.14-53.86-1.28-9.29-2.62-18.89-3.34-27.66-1.24-14.87-3.76-44.11-2.24-58.06,2-18.17-.66-7.21,4.15-27.85-3.91,2.07-6.64,4.73-10.43,7.57-23.22,17.41-58.91,35.42-85.69,44.31-20,6.62-35,12.51-57,17-83.13,17.15-108.38,18.25-205,18.11l-51.82-3.18c-4.92-.53-11.95-1.39-17.18-1.82-3.65-.29-73.1-18.22-90.84-21.16-35.7-5.93-58.4-10.87-97.2-13.8-90.3-6.84-178.54-2.77-260.36,31.5-16.07,6.74-34.05,15.77-48.58,25.42-7.42,4.92-14.67,9.61-21.68,15.32-4.06,3.31-17.84,14-20.31,17.69,4.22-.35,9.47-2.75,13.21-3.79,4.86-1.35,8.3-2.2,13.37-3.63,33.47-9.48,114.23-22.95,150.42-22.58,7.06.07,9.95-1,16-1,10.7-.13,45.15-.52,51.62.46,9.57,1.45,22.4.86,32.37,1.64,17.21,1.34,59.15,6.52,76.16,9.83,6.16,1.2,52.28,21,62,25,29,11.65,73.67,25.81,104.45,33.55,28.05,7.06,87.39,19.29,117.42,20.58,20.27.87,45.43,4.13,66.26,1.28l31.55-2.45c41.18-5,146.38-39.17,173.58-64.42,1.44-1.33.71-1,2.6-2.4,2.48,1.82,6.24,8.37,8.39,11.61,10.33,15.55,24.07,31.78,35.75,46.25Z" transform="translate(-1169.41 -1333.5)"/><polygon class="cls-5" points="2331.59 558 2332.59 558 2331.87 557 2331.73 557 2331.59 558"/><path class="cls-4" d="M3600,3817.5c-3.91.91-5.4,2.47-8.68,4.32l-44,24c-28.13,14.26-60.72,33.74-88.65,49.35-46.82,26.18-93.6,52.79-139.5,80.5l-34.38,20.62c-22.72,13.68-46.21,27-68.2,41.8-27.4,18.41-56.26,34.56-82.76,54.24-3,2.21-5.05,3.53-8.26,5.74l-23.45,17.55c-10.09,8.07-20.82,16-29.89,25.11-3.86,3.85-10.84,10.49-12.25,15.75l70.28,4.72c4,.53,9,.6,12,1,3.93.51,8.7,1,11.78,1.22,144.07,11.13,350.5,42.93,491.5,66.5,14.82,2.48,29.85,4.6,43.69,7.31l86.73,15.27c28.73,4.74,56.6,10.38,85.43,15.57,58.12,10.44,113.19,23.36,171.28,31.72,21.13,3,45.35,6.83,67.27,8.73,4,.35,7.19.64,11.86,1.14l58.22,4.78c44.24,3.66,105.66.54,145.79-5.11,46.47-6.55,93.42-19,129.3-47.7,2.45-2,4.86-3.68,7.13-5.87,2.53-2.45,3.94-4.41,6.73-6.27.56,24.84,11.64,56.22,22.67,78.33,11.25,22.58,26,40,43.56,57.44,8.42,8.33,18.58,15.26,28.71,21.29A227.58,227.58,0,0,0,4588,4423.5a244.68,244.68,0,0,0,38.24,11.76c12.55,2.66,30.63,6.24,44.76,6.24-3.2-4.79-17.63-18.42-23.85-26.15-2.53-3.14-5.08-5.76-7.84-9.16-10.31-12.75-19-25.26-28.11-38.89-4.63-6.89-8.11-13.57-12.25-20.75a188.8,188.8,0,0,1-11.37-22.63c-23.19-55.85-33.06-108.53-8.3-166.14a197,197,0,0,1,24.71-42.29l15.72-18.28c18.61-22.27,49.82-44.68,74.48-59.52,81.66-49.16,178.88-79.46,271.39-99.61l51.85-11.15c.32-.09,1.23-.38,1.52-.48,2.23-.81.93-.24,2.05-1-81.46-19-172-11.57-247.41,7.59-107.74,27.36-221.66,90.56-303.81,162.19l-46.55,41.45c-5.67,5.61-11.12,11.84-17,17-19,16.71-40.81,29.35-64.52,39.48-8.31,3.55-15.43,6.64-24.35,9.65-5,1.67-7.25,2.67-12.73,4.27-24,7-45.3,12.36-71.35,16.65-91,15-196.45,5.91-283.87-11.71l-204.51-38.49c-57.44-11.39-117.25-20.71-174.82-32.18-49.08-9.77-98.08-16.24-147-26-33.86-6.75-84.14-14.29-119.52-19.48-10.24-1.5-20.7-3.61-30.57-4.43,4.09-6.1,13.08-12.56,18.73-18.27l14.85-13.15a48.75,48.75,0,0,0,5.15-4.85c2.22-2.16,2.77-2.17,5-4l9.56-8.44a44,44,0,0,1,5.32-4.68c2.23-1.74,2.7-2.57,4.72-4.28l20.47-17.53c2.12-1.9,2.8-2,5-4,15.44-14.36,66.89-56.64,81.67-68.33l21-17c36.64-28.62,78-64.85,114.84-92.16C3584.84,3830.66,3596.45,3822.8,3600,3817.5Z" transform="translate(-1169.41 -1333.5)"/><path class="cls-5" d="M3600,3817.5l2.15-.55Z" transform="translate(-1169.41 -1333.5)"/><path class="cls-4" d="M4555,3306.5l79.27-79.73c3.19-3.18,4.27-5.38,7.47-8.52,27.62-27.18,101.82-125.59,120.27-151.74,30.13-42.72,49.35-73.23,76.18-114.82,18.68-28.92,43.35-71.44,59.49-100.51,25.08-45.16,49.24-89.63,71.67-136.33,1.36-2.84,4-8.67,4.65-11.35-2.84,2.08-20.18,28.15-24.42,33.58-3.14,4-5.65,7.35-8.81,11.19-39.25,47.78-57,65.7-103.52,112.48l-10.52,9.48c-3.12,3.14-6.29,6.79-9.58,9.42l-15.42,13.58c-38.69,37.37-109.78,92.8-146.59,120.41l-10.73,8.27c-4.37,3-7.48,5.39-11.55,8.45L4553,3087.5c-27.06,19.22-55.45,37.63-83,56-47.47,31.65-96.24,61.67-145.42,90.58l-37.39,21.61c-3.43,2.07-10.22,5.12-12.19,7.81,35.14-2.93,163.16-54.77,198.33-71.66L4660,3107.5c-1.5,5.6-19.61,25.41-24.76,31.24L4619,3156.5c-3.2,4.19-6.93,7.35-10.77,11.23l-89,92c-4.29,4.27-6.81,7.87-11,12-8,7.87-15.09,15.09-23,23-15.24,15.24-29.85,29.68-45,45l-23,22-23,23-62,61c-8.06,8.09-23.23,19.71-29.27,28.73,5.18-.12,13.52-2.13,18.76-3.24,56.65-12,120.81-38.46,173.91-63.09L4580,3367.5c5.3-2.64,9.69-5.36,15-8,22-11,44.86-22.65,66-35,36.14-21,73.35-40.23,109.15-61.85,5-3.05,9.15-5.65,14.47-8.53s9.22-5.95,14.34-8.66c-.61,7.36-10.63,26.3-14,32.05l-17.46,29.53c-11.68,19.15-25.61,37.07-39,55-6.78,9.08-13.14,16.95-20.14,25.86-13.49,17.16-32.94,41.84-47.68,57.32L4644,3464.5c3.67-1,11.65-7.11,15.4-9.6a724,724,0,0,0,73.38-55.62l28-24c4.56-4.54,8.42-7.44,13-12l39.52-38.48c2.61-2.71,3.26-4.31,6-7,2.37-2.4,4.12-4.09,6.53-6.47l41.67-48.32c2.11-2.7,3.69-4.64,5.8-7.21l27.93-37.07a752,752,0,0,0,45.89-71.11c12.51-21.72,24.33-44.8,35.63-67.37,9.78-19.56,24.43-53.7,29.32-74.68-4.65,3.11-7.17,7.73-11.24,11.76l-17.49,17.51c-2.6,2.5-3.94,3-6.54,5.46-2.26,2.17-3.7,3.93-6,6-2.58,2.39-3.92,2.86-6.53,5.47l-65.37,52.63c-4.72,3.53-9.29,6.68-13.86,10.14-18.16,13.73-37.39,25.92-56.4,38.6-43,28.69-87.74,55-132.92,80.08l-108.35,57.65C4579.15,3294.92,4563.07,3304.62,4555,3306.5Z" transform="translate(-1169.41 -1333.5)"/><polygon class="cls-5" points="3804.59 1370 3805.59 1370 3804.75 1368.83 3804.59 1370"/><path class="cls-4" d="M2577,4591.5c-3.52.94-2.22,1-4.89,3.11l-70.81,61.19a50.32,50.32,0,0,0-4,3.95l-26,24.05c-8.57,7.15-72.26,71.47-78.15,78.85l-71.39,77.61c-24.78,27.88-48.64,56.93-71.89,86.11l-92.59,122.41c-10.5,14-72.13,108.14-74.28,109.72-1.14-4.89-16.14-30.29-19.67-37.33-6.67-13.35-12.56-25.37-18.61-39.39-12.88-29.86-23.11-57.47-22.76-92.32.23-23,18.87-38.61,31.46-54.54l67.16-77.84c6.14-8,13.66-14.15,19.84-22.16l48.82-53.18c4.66-5,10.14-9.35,14.47-14.53,11.27-13.5,45.5-47.42,56.54-58.46l58-58c5.16-5.18,9.77-8.77,15-14l51-49c3-2.94,5-3.91,8-7,2.51-2.53,4.39-4.65,7-7l45.5-41.5c3-3.08,5.05-4,8-7a70.11,70.11,0,0,1,7.38-6.62l45.6-40.4c3-2.8,5.2-4.21,8-7,7.32-7.27,15.63-13,23-20a30.56,30.56,0,0,1,3.83-3.17l90.43-75.57c29.81-23.23,59-48.07,89-71,32.52-24.85,65.17-50.39,98.59-74.41l33.43-24.57c5.56-3.91,10.54-7.57,16.39-11.61l119.2-82.8,34.2-22.8c6-4,11.33-7.72,17.39-11.61,41.12-26.36,82.17-52.78,124-78L3309,3910.5c22-11.37,43.31-24.48,65.35-35.65,3.81-1.94,6-3.53,9.64-5.36l94.82-49.18c9.34-5.7,62.6-30.51,77.86-38.14l38.66-18.34c22.72-11.51,46.4-20.65,69.33-31.67,36.44-17.49,74.3-31.24,111.37-47.63,6.79-3,13.59-5.21,20.63-8.37,36-16.12,86.56-33.57,124.77-48.23l129-45.05c6.59-2.2,16.14-4.75,21.62-7.38,3.89,7.35,7.5,14,11.33,21.67s7.39,13.77,11.34,21.66l16.31,33.69c1.88,3.79,3.84,7.13,5.6,11.4l20,46c3.32,8.33,5.84,15.48,9.14,23.86,2,5.07,7.88,20.78,8.29,25.71,9.26-6.78,5.7-57,4.45-65.45-3.2-21.66-7.57-40.65-12.65-61.35l-8.41-28.59c-3.23-9.7-6.21-18.28-9.51-27.49-6.47-18-13.34-36-20.85-53.15-1.89-4.29-3.35-8.09-5.37-12.63-2.12-4.75-3.92-8.57-5.8-13.2-6.22-15.33-27.72-61.27-36.05-74.95-4.87-8-7.83-16.19-12.49-24.51s-8.63-15.46-13-24l-13.3-23.69c-3.23-5.58-11.56-18.37-13.05-24,16.27-8.61,67.72-45.58,84.81-57.19,2.75-1.87,4.17-3.14,7-5,2.61-1.75,4.83-3.1,7.21-4.79l83.15-58.85c36.35-26.86,73.67-52.76,109-81,22-17.58,44.9-34.44,66.08-52.92,2.43-2.11,4.26-3.36,6.53-5.47,23.59-21.94,43.48-36.4,67.25-63.75,0,16.82-18.11,64.15-24.14,78.86-7.27,17.74-16.75,34-27.26,49.74l-10.6,15.4c4.9-1.31,22-17.9,26.58-21.42l12.69-11.31c4.58-4.63,8.43-7.44,13-12l24.5-23.5c4.38-4.34,7.06-8.07,11.5-12.5,8.84-8.81,27.78-27.9,35.33-37.67,10.46-13.54,23-25.89,33.44-39.56,3.54-4.65,6.79-8.62,10.56-13.44,7.35-9.42,14.23-18.11,21-28,19.8-28.77,40-57.24,57.35-87.65,27.24-47.61,50.79-97.65,68.18-149.82,1.45-4.37,5.49-14.53,5.87-19.13-.16.18-.38.24-.44.56l-16,28c-3.32,5-5.81,8.9-9.2,13.8-9.3,13.46-20.1,26.18-30.27,38.73-15.2,18.77-43.34,48.73-61.38,64.62-10.28,9.05-18.9,20-29.76,28.24-8.61,6.57-16,14.74-24.3,21.7-16.76,14.1-32.75,27.56-49.83,41.17l-65,50c-39.79,29.23-80.35,57.16-121.44,84.56-9.57,6.38-18.23,11.8-27.79,18.21l-42.2,26.8c-32.66,21.43-67.05,40.39-100.47,60.53-33.62,20.28-68.32,39.21-102.62,58.38l-74.64,40.36c-2.89,1.44-4.47,2.2-7.36,3.64-3.34,1.67-4.54,2.68-7.65,4.35l-45.33,23.67c-9.5,4.7-22.27,10.26-30.34,15.66l26.85,30.15a72.08,72.08,0,0,0,5.92,6.08c2.46,2.48,2.83,3.56,5,6l66,72.06c15.16,18.14,34.81,36.89,49.14,54.85,5,6.23,11.27,11.56,16.15,17.85,2.13,2.73,4.12,3.69,5,7-3.87.32-13.33,4.56-17,6l-116,46c-65.33,26-130.66,53.79-195,82-42.92,18.79-86.44,37-128.63,57.37-2.9,1.41-4.78,1.91-7.68,3.32-39.25,19-79.35,36-118.32,55.68L3303,3821.49c-25.58,12.69-50.44,27.36-76,40-20.4,10.1-39.6,21.61-59.68,32.32-35.15,18.75-69.54,39-103.52,59.48-5.08,3.06-9,5.62-14.24,8.76l-29.16,17.84c-9.65,6.34-18.73,11.44-28.21,17.79-4.82,3.24-9.16,5.77-14,9L2923,4043.52c-6.57,3.09-101,0-114,0h-46c-16.64,0-29.78,1-46,1-62.3,0-121.15,2.21-182,3l-122,5c-5.5,0-6.43.79-11,1-3.55.19-7.45-.19-11,0-4.54.24-5.46,1-11,1-19.06,0-36.2,2.82-55.07,2.94l-32.91,2.09c-5.82.46-15.07,1.81-21,2-35.69.85-71.17,5.62-106.93,9.07-102,9.84-220.33,26-315,56l-33.83,12.17c-6.31,2.52-10.68,4.58-16.87,7.13-15.53,6.42-47.31,25.48-55.42,37.58,8.9-.2,20.64-2.38,29.42-3.58,31.17-4.25,60.81-5.47,92.15-9.85l255.49-22.51c2.92-.24,5.84.12,8.79-.21,14.92-1.63,32.93-1.6,47.42-3.58l257.87-12.13c9.06-1,24.2-.18,33.87-.13,7,0,10-1,16-1.05l168.08,1c6.43,0,8.94,1.1,15.95,1.05,12.42-.07,21.14,1,33,1,6.84,0,9.14,1.09,16,1,7-.06,10.4.86,16,1,11.42.29,21.64,2,32,2,2.28,9.77,2.95,12.08-1.62,21.37-6,12.24-18.16,19.17-29.18,25.83-6.18,3.74-13,5.36-18.51,9.49-10.78,8.08-21.17,15.15-31.83,23.17l-78.57,58.43-8,6c-34.16,25.49-67,52.41-101.15,77.86l-167,135c-15.44,12.5-30.1,26.08-45.72,38.28-10.55,8.24-19.17,17.06-29.56,25.43-12.36,10-24,21.67-36.15,31.85-16,13.41-66.63,58.66-80,72l-21,20c-13.71,11.46-50.73,48.82-63,61-12.87,12.87-29.38,27.34-40.6,41.4l-26.91,28.09c-11,11.92-21.15,24.84-32.5,36.5l-12.43,14.57c-1.55,1.85-1.43,2.08-3.08,3.92-29.67,33.3-55.19,70.11-79.64,107.36l-5.59,8.41,57.43,73.57c32.18,42.94,66,89.62,91.91,137.09,2,3.59,3.79,6.73,5.85,10.15,9.5,15.68,20.62,39.41,26.7,56.3,6.16,17.14,12.11,34.58,12.11,53.89,3.91-2.87,12.93-17.88,16.2-22.8,5.36-8.05,10.24-15.36,15.6-23.4l23.4-34.6c2.9-4.35,5.22-7.48,8.21-11.79,24.05-34.72,47.14-70,71.59-104.41l40-58c24.31-34.22,47.86-69.34,72.85-103.15l41-57c5.73-7.58,10.64-14.87,16.43-22.57,22.88-30.38,61.09-85.43,83.48-112.52l108.48-135.52c8-8.61,15.11-18.18,23.48-26.52C2571,4599,2575.76,4596.14,2577,4591.5Z" transform="translate(-1169.41 -1333.5)"/><polygon class="cls-5" points="1409.59 3256 1410.59 3256 1409.76 3254.83 1409.59 3256"/><polygon class="cls-5" points="3207.59 1808 3206.59 1808 3207.42 1809.17 3207.59 1808"/><path class="cls-5" d="M2579,4589.5l-1,1Z" transform="translate(-1169.41 -1333.5)"/><path class="cls-5" d="M2578,4590.5l-1,1Z" transform="translate(-1169.41 -1333.5)"/><path class="cls-4" d="M1595,2246.5c0,70.61,4.93,115.28,25.88,178.13,17.39,52.2,48.72,109.45,85.38,150.61l13.47,15.53c2.63,2.61,5.12,4.77,7.51,7.49,2.82,3.19,3.82,4.83,7,8,44.64,44.28,96.64,82.73,153.07,110.93,40.41,20.19,82,39.25,125.68,51.32,5.92,1.64,17.73,5.86,24,6,0,16.27-1,28.94-1,45,0,76.07,7.67,140.87,21.41,209.59,7.62,38.06,17.46,74.64,27.94,111.06,3.55,12.36,7.05,23,11,35s7.46,22.76,11.76,34.24c4.13,11,8.13,22.06,12.56,33.44,16,40.89,34,80.43,53.32,119.68,21.37,43.41,45.16,85.38,70,127l18.14,28.86c15.38,22.93,30.31,46.12,46.64,68.36l19.73,26.27a408,408,0,0,0,37.67,43.33,66,66,0,0,0,6.47,5.53c2.14,1.8,3.54,3.52,5.52,5.48,21.45,21.25,60.77,47.73,89.1,61.9a339.85,339.85,0,0,0,32.81,14.19A242.24,242.24,0,0,0,2580,3758.5h11.34c49.31-1.08,98.34-16.13,140.88-41.8,4.37-2.63,8.11-4.71,12.41-7.59l23.82-16.18c4.16-3.14,7.42-5.56,11.43-8.57,29.86-22.33,56.79-49.78,81.38-77.62,31.69-35.86,58-75.51,82.44-116.56,2.72-4.55,5-7.87,7.64-12.36l23.28-35.72c13.1-19.78,27.76-39,42.53-57.47,9.88-12.38,24.91-31.61,36.1-42.9,1.82-1.84,3.32-3.07,5-5l14.51-15.49a123.42,123.42,0,0,0,9.54-10.46l35.56-33.44a47.45,47.45,0,0,0,5.4-4.6c18.34-18.25,58.13-46.17,78.95-60.05,8.27-5.51,16.27-10.15,24.74-15.26a302.77,302.77,0,0,1,39.48-20.52c4.48-1.86,10-3.31,13.58-6.42l-31-2c-30.34,0-57.08,8.4-82.34,19.66L3143,3199.51c-32.83,17.18-63,38.88-91.32,62.68l-18.27,15.73c-8.88,6.86-36.23,35-43.67,42.33L2912,3414.5c-4.74,6.67-9.33,12.78-14.43,19.57-11.2,14.95-22.1,28.91-34.33,42.67-1.65,1.86-2.83,2.67-4.39,4.61a87.38,87.38,0,0,1-8.1,8.9l-16.5,17.5a468.08,468.08,0,0,1-36.1,32.9c-34.54,27.89-63,46.61-103.81,67.19-21.33,10.75-55.1,23.66-80.34,23.66-57.38,0-95.45-15.46-122.16-51.84-22-29.93-34.84-78.28-34.84-130.16,0-43.95,3.28-73.34,9.29-114.71,4.17-28.72,11.31-58.57,18.31-86.69,12.57-50.51,30-110.85,53.07-156.93a623.63,623.63,0,0,1,71.2-110.8c15.55-19.52,50.72-60.11,68.89-76.11,31.1-27.4,58.53-52.53,92.82-77.18A1173.08,1173.08,0,0,1,2988,2703.47c24-10.52,48.91-20.7,74.15-29.85l78.76-26.25c71.81-22.23,168.67-28.09,247.12-23.87,106,5.69,248.87,44.12,331,103,16,11.46,27.27,12.34,40.44,31.56,17.56,25.67,8.06,61.06-6.61,85.25-8.18,13.48-17.61,25.37-27.24,37.76-5.61,7.22-16.18,15.85-20.58,22.42,34.36,0,78.74-12.48,105.56-30.44,43.57-29.19,53-72.77,43.87-122a210.28,210.28,0,0,0-13.14-43.86c-6.86-16.28-14.9-36.66-25.47-50.53-.18-.23-.7-.89-.89-1.11s-.34-.37-.49-.51c-2.8-2.9-18.41-15-28.69-25.31-18.52-18.52-35-42.11-47.1-65.9-4.2-8.28-9.24-17.42-12.51-25.49-11.5-28.36-22.13-53.54-30.15-83.85-5.3-20-10.66-41-14.12-61.88-.66-4-3.63-28.6-5.87-32.13-1.94,8.34-5.86,17.25-8.36,25.64-19.72,66.18-17.45,143.6,3.47,209.25,1,3.23,3.43,10.06,4.89,13.11a53.64,53.64,0,0,1-8.14-2.86,769.62,769.62,0,0,0-136.43-37.56c-40.18-7.08-80.88-13.58-122.43-15.58-4.44-.22-4.79-1-10-1l-73-1c-83.93,0-173.74,13.87-254.8,34.2-30,7.52-60.24,16.31-89.82,26.18-7.72,2.57-14,4.68-21.76,7.24s-13.74,5.16-21.23,7.77-13.6,4.9-20.4,7.6l-41,17c-26.68,11.69-52.89,23.57-78.29,37.71-6.38,3.55-11.71,7.27-17.87,11.12l-84.23,60.78c-5.83,4.55-10.56,8.12-16.26,12.73l-16,13c-5.42,4.58-10.42,8.65-15.56,13.44-10.59,9.84-27.37,23.24-37.51,33.49l-14.48,14.52c-14.9,13.79-29.2,29.1-43,44L2457.2,3012.7c-15.88,23.83-29.29,47-43.78,71.22L2384,3141.5c-3.24,6.4-5.85,13.5-9,20-25.78,53.15-61,170.07-61,229-9.39-6.29-48.85-66.58-57.19-79.81-18.25-28.92-32.81-59.41-48.15-89.85-2.11-4.18-3.22-7.49-5.33-11.67-5.93-11.75-10.08-23.89-15.3-35.7-3.49-7.89-6.34-15.89-9.6-24.4l-18.05-51C2141,3040,2122,2966.18,2112,2905.5c-7.33-44.65-16.07-89.48-20-135-2.22-25.86-5.81-52.1-7-78l-1.14-15.86c-2.87-26.28-2.56-55.23-4.8-82.2-.9-11,.59-23.27-.78-33.22-1.2-8.74-.7-138.07,1-150.46l1.73-31.27c1.44-26.64,1.14-52.52,4.73-79.27,2-15,3.45-43.59,5.45-61.55.42-3.81,1.73-11.19,1.82-15.18-3.51,4-8.9,26.51-10.59,32.41l-9,35c-19.72,78.74-33.21,173-39.47,253.53-.27,3.42-.65,9.58-1.21,13.79-.45,3.42-.66,9.41-1.3,13.7l-2.39,41.61c-.15,5.29-1,7.56-1,14-4.48-2.15-11.18-3.56-16.61-5.39-32.38-10.86-81.64-27.47-111-45-21.16-12.67-33.22-18.94-55-34a388.91,388.91,0,0,1-43.16-34.84l-17-17c-16.39-16.56-36-44.13-47.81-64.19-5.51-9.32-11.25-19.79-15.28-29.72-8.88-21.9-16.85-42.82-22.75-66.25-18.25-72.54-12.19-160.76,8.49-231.73,15.4-52.82,34.26-84.94,65.12-124.88,29.56-38.26,84.27-79.74,125.66-102.34l45.32-23.68c26.62-13.1,73.4-31.42,101-39,40.3-11,68.06-19.92,111.85-27.15,66-10.91,109.06-16.3,177.14-32.86,18.83-4.58,36.46-8.81,55.42-13.58,27.85-7,54.82-15.72,81.8-23.2,61.64-17.09,121.63-40.19,181.64-62.36,33.28-12.29,66.82-26.28,99.17-40.83,12.67-5.7,61.56-25.59,70.77-33.23,6.34-5.27,12.89-10.42,19.8-15.2,7.34-5.07,13.78-9,21.22-13.78,22-14.2,45-25,69.17-35.83,7.78-3.49,15.63-6.8,23.88-10.12,106.47-42.82,212.08-62,324.76-24.48l35.24,13.76c10.41,4.25,21.83,10.57,31.83,16.17,32.14,18,58,38,85.07,61.93l48,49c23.66,25.44,42.63,55.4,61.66,84.34,3.38,5.15,5.8,9.64,9,15,3.39,5.61,5.63,10.4,9,16,6.32,10.58,11.28,20.88,16.92,32.08,2.6,5.2,14.29,29.88,14.66,34.34,3.16-.26,8.11-1.32,11.08-1.92,55.55-11.2,138.5-12.69,192.05,6.79,28.27,10.28,50.25,23,69.62,42.38,19.6,19.6,34.3,41.56,43.64,68.36,22.18,63.67,19.65,136.76,7.19,203-3.24,17.23-11.94,60.49-19.58,76.42,5.81-1.55,30.65-34.1,34.8-40.2,10.16-14.92,20.08-30.57,28.2-46.8,17.76-35.53,31-77.38,31-120,0-43.7-3.39-72.36-16.62-112.38a230.35,230.35,0,0,0-10-26c-7.89-16.36-15.86-30.69-26.77-45.23s-21.32-25.68-34.32-38.68c-50.2-50.2-129.28-82.75-206.25-82.75-17.59,0-64,.25-76,6-2.27-9.75-26.41-43.27-34.71-54.29-2.13-2.84-3.51-4.6-5.49-7.51-13.53-19.89-29.8-38.36-44.94-57.06-7.74-9.56-15.14-18.36-23.16-27.84l-84.95-94.05c-4.73-4.75-8.75-7.74-13.48-12.52-2.66-2.67-3.91-3.18-6.5-5.5s-4.38-3.73-7-6c-4.95-4.31-9.17-7.51-14.5-11.51-24-18-51.51-35.14-80.14-46.85-47.17-19.31-94.3-31.86-148.14-31.86-46.78,0-82.78,2.55-127.58,12.42-10.67,2.35-21.36,4.75-31.3,7.7-19,5.64-39.32,10.86-57.83,18.17l-27.57,10.42c-9.74,3.9-18.17,7.57-27.58,11.43a642.38,642.38,0,0,0-76.18,37.81l-25,14c-13.75,7.43-27.68,16.59-40.82,25.18-2.55,1.67-3.18,2.43-5.77,4.23-21.17,14.67-25.79,17.82-43.63,33.37-20.66,18-43.8,32.7-67.21,46.79-41,24.67-85.18,44.66-129.57,62.43-8.92,3.57-18.36,7.6-27.15,10.85-52.89,19.54-90.65,31.33-143.47,48.52-24.79,8.07-49.63,14-74.74,21.27-35.35,10.32-71.13,18.51-107.25,26.75-41.81,9.54-85.23,16.38-125,28-20.34,5.91-38.29,11.46-57.74,18.26-54.18,19-105.29,45.6-152.81,77.19-19,12.63-35.95,27.52-53.8,41.2l-10.24,8.76c-3.7,3.25-5.85,6.26-9.76,9.24-13.13,10-26.16,26.85-37.76,39.24-25.67,27.42-52.38,71.29-68.58,103.42-2.27,4.49-3.85,8.79-5.68,13.32-8.7,21.62-20.21,88.82-23.4,111.6C1597.46,2197.34,1595,2221.91,1595,2246.5Z" transform="translate(-1169.41 -1333.5)"/><path class="cls-4" d="M4886,4521.5c-69.86,0-139.9-7.35-206.4-22.6-9.22-2.12-17.93-4.09-26.61-6.39L4549.4,4465.1c-88.31-22.08-176.62-42.29-265.64-61.36-18.53-4-36.28-7.12-54.56-11.44-36.43-8.61-72-14.66-108.95-22.05l-82.16-15.84c-8.5-1.69-19.29-4.72-28.09-4.91l1.27.73,1.36.64c1,.4,2.76.95,3.73,1.27,16.38,5.32,33.69,11.68,49.85,16.15,10,2.77,19.19,6.1,28.92,9.08l143.74,46.26c38.27,12.8,77.05,23.92,115.26,36.74,19.19,6.43,38,12,57.49,18.51,10,3.31,18.87,5.92,28.76,9.24l85.75,27.25c5,1.52,9.12,3,14.25,4.75,37.92,12.76,77.41,24,115.25,36.75,5.12,1.73,9.28,3.24,14.24,4.75l43,14c55.3,18.49,112.93,30.76,171,38.05,14.74,1.86,42.45,3.9,70.23,4.82h50.75c6.75-.33,12.75-.85,17.63-1.58,4.44-.66,12.74-1.17,16.61-1.39,36.49-2,98.63-14,134.35-25.66,9.56-3.11,18.22-5.42,27.5-8.5a734.51,734.51,0,0,0,145.92-67.07c4-2.4,7.46-4.12,11.39-6.61l54-36c22.53-15.35,43.34-33.34,64.1-50.9,2.19-1.85,2.76-1.88,5-4l9.5-8.5c19.33-19.16,40-37.58,58-58,1.51-1.72,2.83-2.87,4.49-4.51,14.39-14.17,46.46-53.94,56-69l8.79-18.21c16.18-36.25,33-76.67,33-119,0-37-3.52-58.85-21.68-89.32-4.88-8.2-11-14.79-17-22-1.69-2-1.64-2.47-3.52-4.48-2.77-3-5.35-4.25-8.53-7.48-5.18-5.26-11.73-9.93-17.84-14.15-26.44-18.27-56.2-30-87.05-38.95-25-7.24-52.58-11.89-78.66-15.34-9.77-1.29-19.3-1.41-29.12-2.88-5.14-.77-10-.07-15.16-.84-1.57-.24-3.24-.43-5-.58H5325l32.38,10.62a416.68,416.68,0,0,1,60.63,25.37l20.72,12.28c28.51,20.64,52.54,41.39,64.16,75.84,19.11,56.66-7.07,118.46-38.09,164.69-12.72,19-26.41,38.26-42,55l-15.61,17.39c-10.49,13.14-25.79,25.94-38.39,37.61a698.13,698.13,0,0,1-65.34,53.66c-4.55,3.3-8.13,6.08-12.81,9.19-27.83,18.48-52.73,32.45-82.61,47.39-73.7,36.86-157.31,56.35-239.16,64.84-13.36,1.39-26.92,2-39.9,3.1Z" transform="translate(-1169.41 -1333.5)"/><path class="cls-4" d="M1577,4201.5c-17.11,4-73.22,28.43-90.29,35.71l-83.12,44.88c-21.11,13.82-35.52,23.91-54.35,40.65l-37.39,37.61c-6.32,7.78-12.33,15.8-17.86,24.14-16.29,24.54-32.05,63-33,93.21v17.35a148,148,0,0,0,6.34,41.11c1.41,4.87,3.44,13,6.66,15.34.34-15.25,17-58,23.33-70.67,20.28-40.48,50.26-75.5,90.35-97.65,16.14-8.91,50.71-24.27,69.32-24.68,10.52,21.93,18,126.38,18,156,4.89-1.31,8.67-9.6,11.2-13.8,3.39-5.63,5.9-11.45,8.8-17.2,24.35-48.22,66.74-207.79,79.92-271.08C1575.73,4208.54,1576.91,4205.55,1577,4201.5Z" transform="translate(-1169.41 -1333.5)"/><path class="cls-4" d="M1670,4385.5c0-16.81-6.72-90.5-29-91-.91,10.88-64.46,196.4-78,216-.89,1.3-1.21,1.6-2.12,2.88-1.87,2.65-.63-.4-1.9,3.1,7.27,4.87,14.28,7.36,21.09,8h7.14c12.49-1.15,24.36-8.17,36.07-17.7,3.54-2.88,7.35-5.06,11.3-7.7,35.42-23.73,81.4-48.1,119.73-67.27l50.66-24.34c42.91-21.35,149.35-60.6,188.39-73.61,37.44-12.49,75.64-24.15,114.62-34.38,19.73-5.17,39-10.73,59.6-15.4l92-20c10.81-2.16,20-3.93,31-6,21.58-4.06,42-7.64,64.13-10.87L2488,4230.5c-3.92-2.49-24-3-29-3-6.36.06-9.19-.77-14.11-1h-67.21c-20.33.37-39.61,1-50.73,1.94-8.53.71-17.74.83-26,1-21.66.53-103.34,9.67-123.41,12.59-91,13.21-181,30.81-268.2,56.8l-83,26c-52.45,17.49-87.82,32.38-136.52,52.48C1684.17,4379.71,1675.58,4384.2,1670,4385.5Z" transform="translate(-1169.41 -1333.5)"/><path class="cls-4" d="M1649,5377.1c.09,12.87.67,24.32,4,38.41l8.63,29.37c3.26,9.25,7.64,17.26,12.42,25.58a164.42,164.42,0,0,0,34.66,41.34c21.46,18,29.67,24.11,57.28,37.72,2.35,1.15,4.59,1.9,7,3,2.66,1.2,3.79,2.23,7,3l-12.88-40.12c-12.23-41.62-19.27-97.56-13.85-141.61,5.13-41.74,20.56-83.81,46.51-113.49,8.28-9.47,16.86-19.84,27.22-26.78.82.71,1.08,1,2.21,1.79s1.89,1.33,3,2l18.22,11.78c13.68,9.12,48.34,35,60.34,46.66,2.35,2.29,3.19,2.46,5.5,4.5l44,43L1992,5380.5l-43.33-89.67c-31.8-63.6-94.82-177.17-146.9-220.1-5.54-4.57-14-10.41-21.77-12.23-3.48,5.2-7.68,10-11.58,15.42-24.81,34.51-32.81,50.85-52.61,83.39l-22.95,45.05c-6.85,16.92-13.18,27.3-20,48-2.34,7.09-4.89,13-7.08,20.92-4.47,16.09-7.46,25.13-11,43-2.86,14.26-5.75,31.84-5.75,49.25Z" transform="translate(-1169.41 -1333.5)"/><text class="cls-6" transform="translate(0 4938)">FOOD FOR THE SOUL</text><text x="-1169.41" y="-1333.5"></text></svg>